{"title":"The.Monkeys.Paw.2013.UNRATED.HDRiP.XViD.AC3-FiRE","uid":9520615,"size":1461991655,"categoryP":"video","categoryS":"movies","magnet":"?xt=urn:btih:feb72e5d48eb91d2ec53ae6cd3dfb5977501ad1d&amp;dn=The.Monkeys.Paw.2013.UNRATED.HDRiP.XViD.AC3-FiRE&amp;tr=udp%3A%2F%2Ftracker.openbittorrent.com%3A80&amp;tr=udp%3A%2F%2Fopen.demonii.com%3A1337&amp;tr=udp%3A%2F%2Ftracker.coppersurfer.tk%3A6969&amp;tr=udp%3A%2F%2Fexodus.desync.com%3A6969","seeders":5,"leechers":0,"uploader":"Acesn8s","files":-1,"time":1390623712,"description":"The.Monkey's.Paw.2013.UNRATED.HDRiP.XViD.AC3-FiRE\n\n**********************************************************************************\n\nFormat                                   : AVI\nFormat/Info                              : Audio Video Interleave\nFile size                                : 1.36 GiB\nDuration                                 : 1h 28mn\nOverall bit rate                         : 2 203 Kbps\nWriting application                      : VirtualDubMod 1.5.10.2\nWriting library                          : VirtualDubMod build 2542/release\n\n**********************************************************************************\n\nVideo\n\nID                                       : 0\nFormat                                   : MPEG-4 Visual\nFormat profile                           : Advanced Simple@L5\nFormat settings, BVOP                    : 2\nFormat settings, QPel                    : No\nFormat settings, GMC                     : No warppoints\nFormat settings, Matrix                  : Default (MPEG)\nMuxing mode                              : Packed bitstream\nCodec ID                                 : XVID\nCodec ID/Hint                            : XviD\nDuration                                 : 1h 28mn\nBit rate                                 : 1 810 Kbps\nWidth                                    : 720 pixels\nHeight                                   : 400 pixels\nDisplay aspect ratio                     : 16:9\nFrame rate                               : 23.976 fps\nColor space                              : YUV\nChroma subsampling                       : 4:2:0\nBit depth                                : 8 bits\nScan type                                : Progressive\nCompression mode                         : Lossy\nBits/(Pixel*Frame)                       : 0.262\nStream size                              : 1.12 GiB (82%)\nWriting library                          : XviD 58\n\n**********************************************************************************\n\nAudio\n\nID                                       : 1\nFormat                                   : AC-3\nFormat/Info                              : Audio Coding 3\nMode extension                           : CM (complete main)\nFormat settings, Endianness              : Big\nCodec ID                                 : 2000\nDuration                                 : 1h 56mn\nBit rate mode                            : Constant\nBit rate                                 : 192 Kbps\nChannel(s)                               : 6 channels\nChannel positions                        : Front: L C R, Side: L R, LFE\nSampling rate                            : 48.0 KHz\nBit depth                                : 16 bits\nCompression mode                         : Lossy\nStream size                              : 243 MiB (17%)\nAlignment                                : Split accross interleaves\nInterleave, duration                     : 42 ms (1.00 video frame)\nInterleave, preload duration             : 500 ms\nSource                                   : iTUNES\n\n**********************************************************************************\n\nGenre \n\nHorror | Thriller  \n\nActors\n\nC.J. Thomason, Stephen Lang, Michelle Pierce \n  \nPlot\n\nJake is given a monkey's paw that grants three wishes. After the first two wishes \nleave his friend Cobb undead, Cobb pushes Jake to make a final wish. \n\n**********************************************************************************\n\nIMDb\n  &lt;a href=&quot;\nhttp://www.imdb.com/title/tt2513092/&quot; rel=&quot;nofollow&quot; target=&quot;_NEW&quot;&gt;\nhttp://www.imdb.com/title/tt2513092/&lt;/a&gt;\n\n**********************************************************************************\n\nScreens\n &lt;a href=&quot;\nhttp://img.acianetmedia.com/i/r3KcV.jpg&quot; rel=&quot;nofollow&quot; target=&quot;_NEW&quot;&gt;\nhttp://img.acianetmedia.com/i/r3KcV.jpg&lt;/a&gt;\n &lt;a href=&quot;\nhttp://img.acianetmedia.com/i/hx4AN.jpg&quot; rel=&quot;nofollow&quot; target=&quot;_NEW&quot;&gt;\nhttp://img.acianetmedia.com/i/hx4AN.jpg&lt;/a&gt;\n &lt;a href=&quot;\nhttp://img.acianetmedia.com/i/5BRZH.jpg&quot; rel=&quot;nofollow&quot; target=&quot;_NEW&quot;&gt;\nhttp://img.acianetmedia.com/i/5BRZH.jpg&lt;/a&gt;\n &lt;a href=&quot;\nhttp://img.acianetmedia.com/i/8YoQK.jpg&quot; rel=&quot;nofollow&quot; target=&quot;_NEW&quot;&gt;\nhttp://img.acianetmedia.com/i/8YoQK.jpg&lt;/a&gt;\n &lt;a href=&quot;\nhttp://img.acianetmedia.com/i/IUtVv.jpg&quot; rel=&quot;nofollow&quot; target=&quot;_NEW&quot;&gt;\nhttp://img.acianetmedia.com/i/IUtVv.jpg&lt;/a&gt;\n &lt;a href=&quot;\nhttp://img.acianetmedia.com/i/7iMXT.jpg&quot; rel=&quot;nofollow&quot; target=&quot;_NEW&quot;&gt;\nhttp://img.acianetmedia.com/i/7iMXT.jpg&lt;/a&gt;","torrent":{"xt":"urn:btih:feb72e5d48eb91d2ec53ae6cd3dfb5977501ad1d","amp;dn":"The.Monkeys.Paw.2013.UNRATED.HDRiP.XViD.AC3-FiRE","amp;tr":["udp%3A%2F%2Ftracker.openbittorrent.com%3A80","udp%3A%2F%2Fopen.demonii.com%3A1337","udp%3A%2F%2Ftracker.coppersurfer.tk%3A6969","udp%3A%2F%2Fexodus.desync.com%3A6969"],"infoHash":"feb72e5d48eb91d2ec53ae6cd3dfb5977501ad1d","infoHashBuffer":{"type":"Buffer","data":[254,183,46,93,72,235,145,210,236,83,174,108,211,223,181,151,117,1,173,29]},"announce":[],"urlList":[]}}